<?xml version="1.0" encoding="UTF-8"?>
<svg id="oregon-icon" xmlns="http://www.w3.org/2000/svg" xmlns:svg="http://www.w3.org/2000/svg" xmlns:sodipodi="http://sodipodi.sourceforge.net/DTD/sodipodi-0.dtd" xmlns:rdf="http://www.w3.org/1999/02/22-rdf-syntax-ns#" xmlns:inkscape="http://www.inkscape.org/namespaces/inkscape" xmlns:dc="http://purl.org/dc/elements/1.1/" xmlns:cc="http://creativecommons.org/ns#" version="1.1" viewBox="0 0 455.2 371.4">
  <defs>
    <style>
      .cls-1 {
        fill: #9ea3a8;
        stroke: #000;
        stroke-width: 3px;
      }
    </style>
  </defs>
  <sodipodi:namedview id="base" bordercolor="#666666" borderopacity="1.0" fit-margin-bottom="20" fit-margin-left="10" fit-margin-right="10" fit-margin-top="10" inkscape:current-layer="layer1" inkscape:cx="443.7283" inkscape:cy="203.65959" inkscape:document-rotation="0" inkscape:document-units="px" inkscape:pageopacity="0.0" inkscape:pageshadow="2" inkscape:showpageshadow="false" inkscape:window-height="705" inkscape:window-maximized="1" inkscape:window-width="1366" inkscape:window-x="-8" inkscape:window-y="-8" inkscape:zoom="0.7" lock-margins="false" pagecolor="#ffffff" showgrid="false" units="px"/>
  <g id="layer1" inkscape:groupmode="layer" inkscape:label="Layer 1">
    <path id="path2017" class="cls-1" d="M181.1,350.4c-31.3-.7-61.2-1.5-82.3-2.4-13.2-.5-19.3-.7-28.9-.7-15.3,0-34.5-.8-37.5-1.6-5.2-1.3-8.8-3.7-11.3-7.5-1.6-2.4-4.6-10.5-5.5-14.6-1-5-.5-11.8,1.6-19.7.8-3,.8-6.9.1-9.1-.7-2.1-1.8-4.1-3.7-6.9-1.8-2.8-2.5-4.2-2.9-5.9-.5-2.3-.2-4.8,1-8.5.6-1.9,3.7-9,5.3-12.1,2.4-4.8,2.7-6.3,2.9-13.1v-5.6c.1,0,1.1-1.5,1.1-1.5,1.1-1.7,2.5-3,4.2-4,1.5-.8,2.7-2.2,3.4-3.7.7-1.4.7-1.6,0-4-.7-2.6-.9-4.3-.6-6.4.3-2.4.7-3.4,2.7-7.7,1-2,1.9-4.2,2.1-5,.6-2.1.7-4.9.3-8.6-.4-4.2-.4-8.2,0-9.8.2-.7,1-3,1.9-5.2.9-2.2,1.8-4.8,2-5.9.3-1.1.7-4.9,1.1-9.8.9-10.5,1.3-14.8,1.6-17,.4-2.8,1.8-9.7,2.2-11.1.8-2.2,1-5.9.8-14.5,0-4.5,0-8.5,0-9.3,0-.7.9-5.3,1.7-10.1,2.3-13.6,2.6-16.4,3.3-30.4.2-4.6.5-8.6.7-9,0-.3.6-1,1-1.5,1.8-2,3.8-5.8,3.8-7.2s-.4-2.8-1.8-7c-1.4-4.2-1.7-6-1.9-9.6,0-1.6-.3-4.9-.5-7.5-.2-2.5-.3-5.2-.2-5.9s.7-2.8,1.4-4.7c1.5-4,1.7-5.3,1.3-9-.2-2.1-.2-2.5,0-3.2.5-1.1,2-2.5,3.2-3.2l1-.5,4.8,1.1c5.8,1.3,6.7,1.3,10.6,0,2.4-.8,2.8-.9,5.2-.9s2.9.1,5.9,1,3.6,1,7.3,1.2c4.8.3,6.1.6,9,2.1,6.5,3.5,10.3,7.1,12.6,12,.8,1.8,2.6,7.5,3.1,10.2.2,1,.5,3.7.6,6,.2,4.7.5,7.3,1,8.6,1.5,4.2,4.5,6.8,9.3,7.9,4.8,1.2,5.7,1.3,13.3,1.2,10.5,0,14.9-.6,18.3-2.6.6-.4,2.2-1.6,3.6-2.7,2.8-2.3,4.6-3.4,6.6-4,1.4-.4,1.7-.4,6.2,0,6.2.5,12.8,1.2,14.4,1.5,1.3.3,3.1,1,4.2,1.9,1.1.8,2.4,1.4,4,1.8,2,.5,2.8.5,4.5-.1,1.1-.4,2.3-.5,5.2-.6,6-.3,7-.6,14.9-5.8,2.7-1.7,5.3-3.3,5.8-3.5,1.1-.5,3.8-.6,4.9-.1.4.2,1.7,1,2.9,1.9,2.5,1.9,3.9,2.6,5.8,2.9,2.7.5,5.6-.6,9.6-3.7,5.3-4,7.1-4.7,16-5.7,3.9-.5,5.9-1.1,10.5-3.1,10.2-4.5,16.2-5.8,22.8-4.9,3.4.4,5.9-.5,9.2-3.6,2.3-2,4.1-3.3,5.8-4l1.3-.5,22.1-.2c12.1-.1,31.1-.4,42.1-.6l20-.5,4.2-.8c3.6-.7,11.1-1.5,13.7-1.5s3.3,1.5,4.8,2.9c.7.7,1.8,2.1,2.4,3.2,1.2,2,6.7,8.8,10,12.4,1,1.1,3,3,4.5,4.4,4.2,3.8,5.6,6.4,5.6,10.1s-.3,4.4-2.9,11.6c-1.3,3.6-2.1,6.5-3.5,13.5-2.4,11.4-3.3,14-7.9,21.8l-1.8,3.1v4.7c-.1,0-.2,4.7-.2,4.7l-3.5,7.4c-3.3,7-8.3,18.3-9.9,22.4-.8,2-1.8,5.7-2,7.5-.3,2.3.8,6.8,2.1,8.7,1.4,2.1,3.7,3.8,6.4,4.8,4.4,1.7,6.9,4.3,7.7,8,.3,1.6-.1,4.1-1.5,9.4q-.9,3.5-.9,7.8c0,2.7-.1,4.6-.3,5.2-.2.5-.9,2.2-1.7,3.8-2.5,5-2.6-3.9.8,73.7,1.6,37.3,3,68.7,3.1,69.8.1,1.1,0,2,0,2.2-.2.3-1.1.4-23.9,1.7-18.8,1.1-22.1,1.2-48.7,1.8-29.4.7-120.7,1.8-140.2,1.8-5.7.3-21.2,0-34.6-.3h0Z" inkscape:connector-curvature="0" sodipodi:nodetypes="ccsccccccsccscccccccccccccccccccccccccccccccccccccccccsccccscccccscccccccccccccccscccscccccccscccscccccsccssccc"/>
  </g>
</svg>