<?xml version="1.0" encoding="utf-8"?>
<!-- Generator: Adobe Illustrator 28.3.0, SVG Export Plug-In . SVG Version: 6.00 Build 0)  -->
<svg version="1.1"
	 id="oregon-icon" xmlns:svg="http://www.w3.org/2000/svg" xmlns:inkscape="http://www.inkscape.org/namespaces/inkscape" xmlns:sodipodi="http://sodipodi.sourceforge.net/DTD/sodipodi-0.dtd" xmlns:rdf="http://www.w3.org/1999/02/22-rdf-syntax-ns#" xmlns:cc="http://creativecommons.org/ns#" xmlns:dc="http://purl.org/dc/elements/1.1/"
	 xmlns="http://www.w3.org/2000/svg" xmlns:xlink="http://www.w3.org/1999/xlink" x="0px" y="0px" viewBox="0 0 16.2 13.2"
	 style="enable-background:new 0 0 16.2 13.2;" xml:space="preserve">
<style type="text/css">
	.st0{fill:#DDDDDD;stroke:#000000;stroke-width:0.25;}
</style>
<sodipodi:namedview  bordercolor="#666666" borderopacity="1.0" fit-margin-bottom="20" fit-margin-left="10" fit-margin-right="10" fit-margin-top="10" id="base" inkscape:current-layer="layer1" inkscape:cx="443.7283" inkscape:cy="203.65959" inkscape:document-rotation="0" inkscape:document-units="px" inkscape:pageopacity="0.0" inkscape:pageshadow="2" inkscape:showpageshadow="false" inkscape:window-height="705" inkscape:window-maximized="1" inkscape:window-width="1366" inkscape:window-x="-8" inkscape:window-y="-8" inkscape:zoom="0.7" lock-margins="false" pagecolor="#ffffff" showgrid="false" units="px">
	</sodipodi:namedview>
<g id="layer1" transform="translate(1.1167187,-122.945)" inkscape:groupmode="layer" inkscape:label="Layer 1">
	
		<path id="path2017" inkscape:connector-curvature="0" sodipodi:nodetypes="ccsccccccsccscccccccccccccccccccccccccccccccccccccccccsccccscccccscccccccccccccccscccscccccccscccscccccsccssccc" class="st0" d="
		M5.3,135.7c-1.1,0-2.2-0.1-3-0.1c-0.5,0-0.7,0-1,0c-0.6,0-1.2,0-1.3-0.1c-0.2,0-0.3-0.1-0.4-0.3c-0.1-0.1-0.2-0.4-0.2-0.5
		c0-0.2,0-0.4,0.1-0.7c0-0.1,0-0.2,0-0.3c0-0.1-0.1-0.1-0.1-0.2c-0.1-0.1-0.1-0.2-0.1-0.2c0-0.1,0-0.2,0-0.3c0-0.1,0.1-0.3,0.2-0.4
		c0.1-0.2,0.1-0.2,0.1-0.5l0-0.2l0-0.1c0-0.1,0.1-0.1,0.2-0.1c0.1,0,0.1-0.1,0.1-0.1c0-0.1,0-0.1,0-0.1c0-0.1,0-0.2,0-0.2
		c0-0.1,0-0.1,0.1-0.3c0-0.1,0.1-0.2,0.1-0.2c0-0.1,0-0.2,0-0.3c0-0.2,0-0.3,0-0.4c0,0,0-0.1,0.1-0.2c0-0.1,0.1-0.2,0.1-0.2
		c0,0,0-0.2,0-0.4c0-0.4,0-0.5,0.1-0.6c0-0.1,0.1-0.3,0.1-0.4c0-0.1,0-0.2,0-0.5c0-0.2,0-0.3,0-0.3c0,0,0-0.2,0.1-0.4
		c0.1-0.5,0.1-0.6,0.1-1.1c0-0.2,0-0.3,0-0.3c0,0,0,0,0-0.1c0.1-0.1,0.1-0.2,0.1-0.3c0,0,0-0.1-0.1-0.3c-0.1-0.2-0.1-0.2-0.1-0.3
		c0-0.1,0-0.2,0-0.3c0-0.1,0-0.2,0-0.2c0,0,0-0.1,0.1-0.2c0.1-0.1,0.1-0.2,0-0.3c0-0.1,0-0.1,0-0.1c0,0,0.1-0.1,0.1-0.1l0,0l0.2,0
		c0.2,0,0.2,0,0.4,0c0.1,0,0.1,0,0.2,0c0.1,0,0.1,0,0.2,0s0.1,0,0.3,0c0.2,0,0.2,0,0.3,0.1c0.2,0.1,0.4,0.3,0.5,0.4
		c0,0.1,0.1,0.3,0.1,0.4c0,0,0,0.1,0,0.2c0,0.2,0,0.3,0,0.3c0.1,0.2,0.2,0.2,0.3,0.3c0.2,0,0.2,0,0.5,0c0.4,0,0.5,0,0.7-0.1
		c0,0,0.1-0.1,0.1-0.1c0.1-0.1,0.2-0.1,0.2-0.1c0.1,0,0.1,0,0.2,0c0.2,0,0.5,0,0.5,0.1c0,0,0.1,0,0.2,0.1c0,0,0.1,0.1,0.1,0.1
		c0.1,0,0.1,0,0.2,0c0,0,0.1,0,0.2,0c0.2,0,0.3,0,0.5-0.2c0.1-0.1,0.2-0.1,0.2-0.1c0,0,0.1,0,0.2,0c0,0,0.1,0,0.1,0.1
		c0.1,0.1,0.1,0.1,0.2,0.1c0.1,0,0.2,0,0.3-0.1c0.2-0.1,0.3-0.2,0.6-0.2c0.1,0,0.2,0,0.4-0.1c0.4-0.2,0.6-0.2,0.8-0.2
		c0.1,0,0.2,0,0.3-0.1c0.1-0.1,0.1-0.1,0.2-0.1l0,0l0.8,0c0.4,0,1.1,0,1.5,0l0.7,0l0.2,0c0.1,0,0.4-0.1,0.5-0.1c0,0,0.1,0.1,0.2,0.1
		c0,0,0.1,0.1,0.1,0.1c0,0.1,0.2,0.3,0.4,0.4c0,0,0.1,0.1,0.2,0.2c0.2,0.1,0.2,0.2,0.2,0.4c0,0.1,0,0.2-0.1,0.4
		c0,0.1-0.1,0.2-0.1,0.5c-0.1,0.4-0.1,0.5-0.3,0.8l-0.1,0.1l0,0.2l0,0.2l-0.1,0.3c-0.1,0.3-0.3,0.7-0.4,0.8c0,0.1-0.1,0.2-0.1,0.3
		c0,0.1,0,0.2,0.1,0.3c0.1,0.1,0.1,0.1,0.2,0.2c0.2,0.1,0.2,0.2,0.3,0.3c0,0.1,0,0.1-0.1,0.3c0,0.1,0,0.1,0,0.3c0,0.1,0,0.2,0,0.2
		c0,0,0,0.1-0.1,0.1c-0.1,0.2-0.1-0.1,0,2.7c0.1,1.3,0.1,2.5,0.1,2.5s0,0.1,0,0.1c0,0,0,0-0.9,0.1c-0.7,0-0.8,0-1.8,0.1
		c-1.1,0-4.3,0.1-5,0.1C6.4,135.7,5.8,135.7,5.3,135.7L5.3,135.7z"/>
</g>
</svg>
